# Blender v2.81 (sub 16) OBJ File: ''
# www.blender.org
mtllib pyramid.mtl
o GD_mesh
v 0.000000 1.333330 0.000000
v -0.000000 -0.000003 0.942809
v 0.816497 -0.000003 -0.471405
v -0.816497 -0.000003 -0.471405
vt 0.020642 0.750000
vt 0.479358 0.520642
vt 0.479358 0.979358
vt 0.479358 0.020642
vt 0.479358 0.479358
vt 0.020642 0.250000
vt 0.979358 0.479358
vt 0.520642 0.250000
vt 0.979358 0.020642
vt 0.520642 0.750000
vt 0.979358 0.520642
vt 0.979358 0.979358
vn -0.8165 -0.3333 -0.4714
vn 0.0000 -0.3333 0.9428
vn 0.8165 -0.3333 -0.4714
vn 0.0000 1.0000 -0.0000
usemtl None
s off
f 1/1/1 3/2/1 2/3/1
f 1/4/2 4/5/2 3/6/2
f 1/7/3 2/8/3 4/9/3
f 2/10/4 3/11/4 4/12/4
